<?xml version="1.0" encoding="UTF-8"?>
<svg width="100%" height="100%" xmlns="http://www.w3.org/2000/svg" xmlns:xlink="http://www.w3.org/1999/xlink"  viewBox="0 0 24 24" version="1.1">
<g id="surface1">
<path style=" stroke:none;fill-rule:nonzero;fill:rgb(0%,0%,0%);fill-opacity:1;" d="M 21.78125 5.074219 C 21.78125 5.066406 21.78125 5.058594 21.777344 5.050781 C 21.75 5.007812 21.710938 4.96875 21.679688 4.929688 C 21.457031 4.621094 21.21875 4.328125 20.96875 4.046875 C 20.902344 3.96875 20.832031 3.894531 20.761719 3.816406 C 20.503906 3.542969 20.234375 3.277344 19.949219 3.027344 C 19.898438 2.980469 19.847656 2.933594 19.796875 2.886719 C 19.101562 2.292969 18.335938 1.777344 17.523438 1.351562 C 17.488281 1.335938 17.453125 1.320312 17.421875 1.304688 C 17.058594 1.117188 16.6875 0.953125 16.308594 0.808594 C 16.222656 0.777344 16.144531 0.746094 16.0625 0.722656 C 15.722656 0.597656 15.378906 0.492188 15.03125 0.402344 C 14.929688 0.375 14.828125 0.34375 14.722656 0.320312 C 14.378906 0.242188 14.035156 0.179688 13.6875 0.132812 C 13.578125 0.117188 13.476562 0.09375 13.367188 0.0820312 C 12.464844 -0.0273438 11.550781 -0.0273438 10.648438 0.0820312 C 10.539062 0.09375 10.4375 0.117188 10.328125 0.132812 C 9.980469 0.179688 9.632812 0.242188 9.292969 0.320312 C 9.1875 0.34375 9.085938 0.375 8.984375 0.402344 C 8.632812 0.492188 8.289062 0.597656 7.953125 0.722656 C 7.867188 0.75 7.789062 0.78125 7.707031 0.808594 C 7.328125 0.953125 6.957031 1.117188 6.59375 1.304688 C 6.5625 1.320312 6.527344 1.335938 6.492188 1.351562 C 5.675781 1.773438 4.910156 2.289062 4.210938 2.886719 C 4.160156 2.933594 4.109375 2.980469 4.058594 3.027344 C 3.769531 3.28125 3.5 3.542969 3.246094 3.816406 C 3.175781 3.894531 3.105469 3.96875 3.039062 4.046875 C 2.789062 4.328125 2.550781 4.621094 2.328125 4.929688 C 2.296875 4.96875 2.257812 5.007812 2.230469 5.050781 C 2.226562 5.058594 2.222656 5.066406 2.21875 5.074219 C -0.738281 9.21875 -0.738281 14.78125 2.21875 18.925781 C 2.222656 18.933594 2.226562 18.941406 2.230469 18.949219 C 2.257812 18.992188 2.296875 19.03125 2.328125 19.070312 C 2.550781 19.375 2.789062 19.671875 3.039062 19.953125 C 3.105469 20.03125 3.175781 20.105469 3.246094 20.183594 C 3.503906 20.457031 3.773438 20.722656 4.058594 20.972656 C 4.109375 21.019531 4.160156 21.066406 4.210938 21.113281 C 4.90625 21.707031 5.671875 22.222656 6.484375 22.648438 C 6.519531 22.664062 6.554688 22.679688 6.585938 22.695312 C 6.949219 22.882812 7.320312 23.046875 7.699219 23.191406 C 7.785156 23.222656 7.863281 23.253906 7.945312 23.277344 C 8.285156 23.402344 8.625 23.507812 8.976562 23.597656 C 9.078125 23.625 9.179688 23.65625 9.285156 23.679688 C 9.628906 23.757812 9.972656 23.820312 10.320312 23.867188 C 10.429688 23.882812 10.53125 23.90625 10.640625 23.917969 C 11.542969 24.027344 12.457031 24.027344 13.359375 23.917969 C 13.46875 23.90625 13.570312 23.882812 13.679688 23.867188 C 14.027344 23.820312 14.375 23.757812 14.714844 23.679688 C 14.820312 23.65625 14.921875 23.625 15.023438 23.597656 C 15.375 23.507812 15.71875 23.402344 16.054688 23.277344 C 16.140625 23.25 16.21875 23.21875 16.300781 23.191406 C 16.679688 23.046875 17.050781 22.882812 17.414062 22.695312 C 17.445312 22.679688 17.480469 22.664062 17.515625 22.648438 C 18.328125 22.222656 19.09375 21.707031 19.789062 21.113281 C 19.839844 21.066406 19.890625 21.019531 19.941406 20.972656 C 20.230469 20.71875 20.5 20.457031 20.753906 20.183594 C 20.824219 20.105469 20.894531 20.03125 20.960938 19.953125 C 21.210938 19.671875 21.449219 19.375 21.671875 19.070312 C 21.703125 19.03125 21.742188 18.992188 21.769531 18.949219 C 21.773438 18.941406 21.777344 18.933594 21.78125 18.925781 C 24.738281 14.78125 24.738281 9.21875 21.78125 5.074219 Z M 20.804688 6.695312 C 21.621094 8.046875 22.117188 9.566406 22.25 11.144531 L 17.113281 11.144531 C 17.050781 10.121094 16.890625 9.109375 16.632812 8.117188 C 18.085938 7.84375 19.488281 7.367188 20.804688 6.695312 Z M 14.183594 1.949219 C 14.234375 1.960938 14.28125 1.972656 14.328125 1.984375 C 14.632812 2.058594 14.9375 2.140625 15.238281 2.242188 C 15.28125 2.257812 15.328125 2.277344 15.371094 2.292969 C 15.667969 2.394531 15.957031 2.507812 16.242188 2.636719 C 16.292969 2.660156 16.339844 2.683594 16.390625 2.707031 C 16.664062 2.835938 16.929688 2.976562 17.1875 3.128906 L 17.359375 3.230469 C 17.605469 3.382812 17.847656 3.542969 18.082031 3.71875 C 18.140625 3.761719 18.199219 3.800781 18.261719 3.851562 C 18.488281 4.023438 18.707031 4.207031 18.917969 4.402344 C 18.972656 4.453125 19.027344 4.5 19.082031 4.550781 C 19.300781 4.761719 19.511719 4.980469 19.714844 5.207031 C 19.738281 5.238281 19.765625 5.265625 19.792969 5.292969 C 18.632812 5.847656 17.402344 6.242188 16.136719 6.46875 C 15.546875 4.855469 14.773438 3.320312 13.828125 1.890625 C 13.945312 1.910156 14.066406 1.921875 14.183594 1.949219 Z M 8.605469 11.144531 C 8.671875 10.214844 8.832031 9.296875 9.078125 8.398438 C 10.046875 8.515625 11.027344 8.570312 12.003906 8.570312 C 12.984375 8.570312 13.960938 8.511719 14.933594 8.394531 C 15.179688 9.292969 15.335938 10.214844 15.402344 11.144531 Z M 15.402344 12.855469 C 15.335938 13.785156 15.175781 14.703125 14.929688 15.601562 C 13.960938 15.484375 12.984375 15.429688 12.003906 15.429688 C 11.023438 15.429688 10.046875 15.484375 9.074219 15.601562 C 8.828125 14.703125 8.671875 13.785156 8.605469 12.855469 Z M 12.003906 2.269531 C 12.980469 3.652344 13.78125 5.152344 14.394531 6.730469 C 13.601562 6.8125 12.800781 6.855469 12.003906 6.855469 C 11.207031 6.855469 10.410156 6.8125 9.617188 6.726562 C 10.230469 5.152344 11.03125 3.652344 12.003906 2.269531 Z M 4.296875 5.207031 C 4.496094 4.980469 4.707031 4.757812 4.925781 4.550781 C 4.980469 4.5 5.039062 4.449219 5.09375 4.402344 C 5.304688 4.207031 5.523438 4.023438 5.75 3.851562 C 5.808594 3.804688 5.867188 3.765625 5.929688 3.714844 C 6.160156 3.542969 6.402344 3.382812 6.648438 3.230469 L 6.820312 3.128906 C 7.082031 2.976562 7.347656 2.835938 7.621094 2.707031 C 7.667969 2.683594 7.71875 2.65625 7.769531 2.632812 C 8.050781 2.507812 8.34375 2.390625 8.636719 2.292969 C 8.683594 2.277344 8.722656 2.257812 8.773438 2.242188 C 9.070312 2.140625 9.371094 2.058594 9.679688 1.984375 C 9.730469 1.972656 9.777344 1.957031 9.824219 1.949219 C 9.941406 1.921875 10.0625 1.910156 10.183594 1.890625 C 9.234375 3.320312 8.460938 4.855469 7.875 6.46875 C 6.609375 6.242188 5.378906 5.847656 4.21875 5.296875 C 4.242188 5.265625 4.269531 5.238281 4.296875 5.207031 Z M 3.207031 6.695312 C 4.519531 7.367188 5.925781 7.84375 7.375 8.117188 C 7.117188 9.109375 6.957031 10.121094 6.894531 11.144531 L 1.757812 11.144531 C 1.890625 9.566406 2.386719 8.046875 3.207031 6.695312 Z M 3.207031 17.304688 C 2.386719 15.953125 1.890625 14.433594 1.757812 12.855469 L 6.894531 12.855469 C 6.957031 13.878906 7.117188 14.890625 7.375 15.882812 C 5.925781 16.15625 4.519531 16.632812 3.207031 17.304688 Z M 9.824219 22.050781 C 9.773438 22.039062 9.730469 22.027344 9.679688 22.015625 C 9.375 21.941406 9.070312 21.859375 8.773438 21.757812 C 8.726562 21.742188 8.683594 21.722656 8.636719 21.707031 C 8.34375 21.605469 8.050781 21.492188 7.765625 21.363281 C 7.71875 21.339844 7.667969 21.316406 7.617188 21.292969 C 7.347656 21.164062 7.078125 21.023438 6.820312 20.871094 L 6.648438 20.769531 C 6.402344 20.617188 6.160156 20.457031 5.929688 20.28125 C 5.867188 20.238281 5.808594 20.199219 5.75 20.148438 C 5.519531 19.976562 5.300781 19.792969 5.09375 19.597656 C 5.039062 19.546875 4.980469 19.5 4.925781 19.449219 C 4.707031 19.238281 4.496094 19.019531 4.296875 18.792969 C 4.269531 18.761719 4.242188 18.734375 4.214844 18.707031 C 5.378906 18.152344 6.605469 17.757812 7.875 17.53125 C 8.460938 19.144531 9.234375 20.679688 10.179688 22.109375 C 10.0625 22.089844 9.941406 22.078125 9.824219 22.050781 Z M 12.003906 21.730469 C 11.027344 20.347656 10.226562 18.847656 9.613281 17.269531 C 11.203125 17.101562 12.804688 17.101562 14.390625 17.269531 L 14.390625 17.273438 C 13.777344 18.847656 12.976562 20.347656 12.003906 21.730469 Z M 19.710938 18.792969 C 19.511719 19.019531 19.300781 19.242188 19.082031 19.449219 C 19.027344 19.5 18.96875 19.550781 18.914062 19.597656 C 18.703125 19.792969 18.484375 19.976562 18.257812 20.148438 C 18.199219 20.195312 18.140625 20.242188 18.078125 20.285156 C 17.847656 20.457031 17.605469 20.617188 17.359375 20.769531 L 17.1875 20.871094 C 16.929688 21.023438 16.664062 21.164062 16.390625 21.292969 C 16.339844 21.316406 16.289062 21.34375 16.242188 21.367188 C 15.957031 21.492188 15.664062 21.609375 15.371094 21.707031 C 15.324219 21.722656 15.285156 21.742188 15.234375 21.757812 C 14.9375 21.859375 14.636719 21.941406 14.328125 22.015625 C 14.277344 22.027344 14.234375 22.042969 14.183594 22.050781 C 14.066406 22.078125 13.945312 22.089844 13.824219 22.109375 C 14.773438 20.679688 15.546875 19.144531 16.132812 17.53125 C 17.398438 17.757812 18.628906 18.152344 19.789062 18.707031 C 19.765625 18.734375 19.738281 18.761719 19.710938 18.792969 Z M 20.804688 17.304688 C 19.488281 16.632812 18.085938 16.15625 16.632812 15.882812 C 16.890625 14.890625 17.050781 13.878906 17.113281 12.855469 L 22.25 12.855469 C 22.117188 14.433594 21.621094 15.953125 20.804688 17.304688 Z M 20.804688 17.304688 "/>
</g>
</svg>
