<svg width="24" height="24" viewBox="0 0 24 24" fill="none" xmlns="http://www.w3.org/2000/svg">
<path d="M11 19C12.846 19 14.543 18.365 15.897 17.312L20.293 21.708L21.707 20.294L17.311 15.898C18.365 14.543 19 12.846 19 11C19 6.589 15.411 3 11 3C6.589 3 3 6.589 3 11C3 15.411 6.589 19 11 19ZM11 5C14.309 5 17 7.691 17 11C17 14.309 14.309 17 11 17C7.691 17 5 14.309 5 11C5 7.691 7.691 5 11 5Z" fill="#8797B8"/>
<path d="M12.4118 9.58599C12.7908 9.96599 12.9998 10.468 12.9998 11H14.9998C14.9998 9.93499 14.5838 8.93099 13.8258 8.17199C12.3118 6.65999 9.68683 6.65999 8.17383 8.17199L9.58583 9.58799C10.3458 8.82999 11.6558 8.832 12.4118 9.58599Z" fill="#8797B8"/>
</svg>
